<?xml version="1.0" encoding="utf-8"?>
<!-- Generator: Adobe Illustrator 16.0.0, SVG Export Plug-In . SVG Version: 6.00 Build 0)  -->
<!DOCTYPE svg PUBLIC "-//W3C//DTD SVG 1.1//EN" "http://www.w3.org/Graphics/SVG/1.1/DTD/svg11.dtd">
<svg version="1.1" id="Layer_1" xmlns="http://www.w3.org/2000/svg" xmlns:xlink="http://www.w3.org/1999/xlink" x="0px" y="0px"
	 width="1548px" height="1008px" viewBox="0 0 1548 1008" enable-background="new 0 0 1548 1008" xml:space="preserve">
<g opacity="0.25">
	<path fill="#006A51" d="M770.415,439.743c13.783,0.399,25.279-10.45,25.678-24.232c0.399-13.782-10.449-25.279-24.232-25.678
		c-13.781-0.4-25.278,10.449-25.678,24.231C745.784,427.846,756.633,439.343,770.415,439.743L770.415,439.743z"/>
	<path fill="#006A51" d="M723.77,431.998c4.573-0.075,19.051,2.214,28.604,9.555c9.552,7.342,15.958,15.734,18.533,20.068
		c0.794,1.27,1.687,2.75,1.946,4.523c0.363-1.756,0.93-3.401,1.58-4.317c1.743-2.755,9.625-12.95,13.563-16.333
		c7.139-6.13,15.104-12.132,34.478-13.856l-0.14,26.279c-3.534,0.105-10.988,2.178-17.465,7.597
		c-6.602,5.522-13.872,16.22-16.17,23.84c-2.299,7.621-2.69,13.946-2.822,18.514l0.664,50.998l-26.625,0.117l0.917-50.906
		c-0.069-4.781-1.032-14.574-3.592-19.427c-2.56-4.853-8.144-18.196-18.193-24.629c-3.06-1.958-7.72-6.041-15.2-6.05L723.77,431.998
		L723.77,431.998z"/>
	<path fill="#006A51" d="M772.708,364.751c0.65,0.809,1.746,2.012,2.916,2.804c1.479,1.001,20.003,12.797,38.46,31.328
		c5.808,5.831,21.478,24.635,21.564,47.899c0.077,20.778-11.68,35.721-13.084,37.223c-4.405,4.928-20.391,17.727-29.702,18.873
		l-0.129,27.019c11.562-2.26,31.049-9.774,42.102-20.952c11.053-11.179,20.241-24.615,24.366-41.552
		c4.746-19.485,1.266-41.678-4.746-54.492c-8.061-17.184-21.862-33.424-39.207-47.305L772.635,334l-42.462,31.813
		c-17.279,13.962-31.004,30.267-38.984,47.489c-5.95,12.843-9.327,35.051-4.489,54.514c4.205,16.917,13.458,30.31,24.563,41.435
		c11.105,11.127,30.628,18.549,42.199,20.755l-0.255-27.018c-9.318-1.101-25.363-13.825-29.792-18.732
		c-1.411-1.495-13.238-16.382-13.259-37.16c-0.023-23.265,15.558-42.143,21.338-48c18.37-18.618,36.838-30.501,38.312-31.51
		C770.971,366.788,772.061,365.564,772.708,364.751L772.708,364.751z"/>
	<path fill="#006A51" d="M650.557,581.668c-0.425-4.65-3.281-7.315-7.777-7.315c-5.043,0-8.082,4.401-8.082,13.019
		c0,6.262,1.337,12.151,8.628,12.151c4.618,0,6.805-3.285,7.352-7.563h13.793c-1.276,11.531-9.357,18.476-20.902,18.476
		c-14.461,0-23.21-9.052-23.21-23.56c0-14.444,9.6-23.435,21.813-23.435c13.367,0,20.841,6.758,21.996,18.228H650.557
		L650.557,581.668z"/>
	<polygon fill="#006A51" points="667.864,609.256 667.864,564.619 680.502,564.619 680.502,609.256 667.864,609.256 	"/>
	<path fill="#006A51" d="M696.649,595.927c0,3.844,2.917,6.386,6.259,6.386c2.005,0,3.828-0.93,4.739-2.852h12.091
		c-2.188,8.06-10.208,10.726-17.621,10.726c-10.208,0-18.106-5.952-18.106-16.863c0-10.664,7.838-17.483,18.046-17.483
		c11.787,0,18.896,8.308,18.714,20.087H696.649L696.649,595.927z M708.134,589.355c0-2.976-2.613-5.642-5.59-5.642
		c-3.767,0-5.894,2.17-5.894,5.642H708.134L708.134,589.355z"/>
	<polygon fill="#006A51" points="720.588,576.771 733.226,576.771 738.816,597.291 744.346,576.771 756.498,576.771 
		745.743,609.256 731.646,609.256 720.588,576.771 	"/>
	<path fill="#006A51" d="M767.607,595.927c0,3.844,2.917,6.386,6.258,6.386c2.005,0,3.828-0.93,4.74-2.852h12.091
		c-2.188,8.06-10.208,10.726-17.621,10.726c-10.208,0-18.106-5.952-18.106-16.863c0-10.664,7.838-17.483,18.046-17.483
		c11.788,0,18.897,8.308,18.714,20.087H767.607L767.607,595.927z M779.091,589.355c0-2.976-2.612-5.642-5.59-5.642
		c-3.767,0-5.894,2.17-5.894,5.642H779.091L779.091,589.355z"/>
	<polygon fill="#006A51" points="794.584,609.256 794.584,564.619 807.223,564.619 807.223,609.256 794.584,609.256 	"/>
	<path fill="#006A51" d="M834.308,609.256l-0.607-3.472c-3.585,3.41-7.23,4.402-11.97,4.402c-6.016,0-11.362-3.038-11.362-9.796
		c0-14.755,22.663-8.06,22.663-14.135c0-2.356-2.795-2.666-4.132-2.666c-1.762,0-4.132,0.372-4.435,3.161h-12.152
		c0-6.881,4.8-10.911,17.377-10.911c15.068,0,15.98,5.704,15.98,13.453v15.189c0,1.86,0.061,2.79,1.701,4.153v0.62H834.308
		L834.308,609.256z M833.031,594.873c-4.132,2.046-9.6,1.054-9.6,5.27c0,1.612,1.519,2.728,4.01,2.728
		C831.877,602.87,833.335,599.337,833.031,594.873L833.031,594.873z"/>
	<path fill="#006A51" d="M850.591,576.771h11.545v5.083c2.855-3.905,5.954-6.014,10.754-6.014c8.386,0,12.335,5.021,12.335,13.949
		v19.467h-12.639v-17.173c0-3.224-0.851-6.075-4.436-6.075c-3.889,0-4.922,2.542-4.922,6.695v16.553h-12.638V576.771
		L850.591,576.771z"/>
	<path fill="#006A51" d="M912.262,609.256v-4.34c-2.977,3.968-5.711,5.271-9.782,5.271c-9.6,0-14.461-7.378-14.461-16.554
		c0-10.787,5.894-17.793,13.489-17.793c4.01,0,6.805,0.992,9.479,4.216v-15.437h12.638v44.637H912.262L912.262,609.256z
		 M911.411,593.323c0-3.596-1.215-7.502-5.407-7.502s-5.347,4.092-5.347,7.688c0,3.41,0.851,7.378,4.981,7.378
		C910.014,600.887,911.411,597.104,911.411,593.323L911.411,593.323z"/>
	<polygon fill="#006A51" points="598,664.256 598,619.619 615.316,619.619 623.033,647.455 630.75,619.619 648.066,619.619 
		648.066,664.256 635.185,664.256 635.185,650.617 635.368,643.673 636.097,635.613 635.975,635.613 628.016,664.256 
		618.051,664.256 610.091,635.613 609.97,635.613 610.577,642.186 610.881,649.129 610.881,664.256 598,664.256 	"/>
	<path fill="#006A51" d="M663.429,650.927c0,3.844,2.917,6.386,6.258,6.386c2.005,0,3.828-0.93,4.739-2.852h12.091
		c-2.188,8.06-10.208,10.725-17.621,10.725c-10.208,0-18.106-5.951-18.106-16.862c0-10.663,7.838-17.483,18.046-17.483
		c11.788,0,18.896,8.308,18.714,20.087H663.429L663.429,650.927z M674.913,644.355c0-2.977-2.613-5.642-5.59-5.642
		c-3.767,0-5.894,2.17-5.894,5.642H674.913L674.913,644.355z"/>
	<path fill="#006A51" d="M711.186,664.256c-16.587,0.93-18.593-0.248-18.593-11.469V639.21h-4.496v-7.44h4.679v-10.104h12.456
		v10.104h6.076v7.44h-6.076v11.779c0,2.976,0.426,4.029,3.95,4.029h2.005V664.256L711.186,664.256z"/>
	<path fill="#006A51" d="M714.579,631.77h11.484v6.572h0.121c1.762-5.084,4.861-7.502,9.782-7.502c0.547,0,1.094,0.124,1.641,0.187
		v12.895c-0.851-0.123-1.762-0.371-2.612-0.371c-5.165,0-7.777,2.479-7.777,9.485v11.221h-12.638V631.77L714.579,631.77z"/>
	<path fill="#006A51" d="M755.764,630.84c11.241,0,18.167,6.758,18.167,16.863c0,11.903-7.899,17.482-18.106,17.482
		c-10.208,0-18.107-5.703-18.107-16.801C737.718,637.102,745.01,630.84,755.764,630.84L755.764,630.84z M750.356,647.703
		c0,6.138,2.248,8.804,5.469,8.804c3.402,0,5.468-2.666,5.468-8.804c0-4.773-2.066-8.37-5.347-8.184
		C751.633,639.52,750.356,644.045,750.356,647.703L750.356,647.703z"/>
	<path fill="#006A51" d="M787.967,631.77v4.836h0.121c1.763-3.968,6.319-5.766,9.965-5.766c9.601,0,14.218,7.998,14.218,16.925
		c0,12.771-7.777,17.421-14.886,17.421c-3.464,0-6.016-1.426-8.143-4.153v14.26h-12.638V631.77H787.967L787.967,631.77z
		 M799.633,647.951c0-5.146-2.188-7.563-5.529-7.563c-3.038,0-5.104,2.976-5.104,7.315c0,4.525,1.884,7.626,5.165,7.626
		C797.506,655.329,799.633,652.415,799.633,647.951L799.633,647.951z"/>
	<path fill="#006A51" d="M837.729,664.256l-0.607-3.472c-3.585,3.41-7.23,4.401-11.97,4.401c-6.016,0-11.362-3.037-11.362-9.795
		c0-14.755,22.664-8.06,22.664-14.136c0-2.355-2.795-2.665-4.132-2.665c-1.763,0-4.132,0.372-4.436,3.161h-12.152
		c0-6.881,4.8-10.911,17.378-10.911c15.068,0,15.979,5.704,15.979,13.453v15.189c0,1.859,0.061,2.79,1.701,4.153v0.62H837.729
		L837.729,664.256z M836.453,649.873c-4.132,2.046-9.601,1.054-9.601,5.27c0,1.612,1.519,2.728,4.011,2.728
		C835.299,657.87,836.757,654.337,836.453,649.873L836.453,649.873z"/>
	<path fill="#006A51" d="M854.376,631.77h11.483v6.572h0.122c1.762-5.084,4.86-7.502,9.782-7.502c0.547,0,1.094,0.124,1.641,0.187
		v12.895c-0.851-0.123-1.762-0.371-2.612-0.371c-5.165,0-7.778,2.479-7.778,9.485v11.221h-12.638V631.77L854.376,631.77z"/>
	<polygon fill="#006A51" points="892.342,655.143 892.342,664.256 879.704,664.256 879.704,619.619 892.342,619.619 
		892.342,641.689 900.424,631.77 915.188,631.77 903.4,644.355 916.707,664.256 901.517,664.256 894.712,652.725 892.342,655.143 	
		"/>
	<path fill="#006A51" d="M928.13,654.15c0,1.302,0.485,2.294,1.336,2.977c0.79,0.62,1.884,0.991,3.1,0.991
		c1.944,0,4.01-0.62,4.01-2.914c0-5.207-19.504-1.054-19.504-13.639c0-8.308,8.445-10.726,15.068-10.726
		c6.927,0,15.068,1.612,15.798,10.229h-11.484c-0.121-1.054-0.546-1.798-1.215-2.355c-0.668-0.559-1.58-0.807-2.552-0.807
		c-2.188,0-3.585,0.683-3.585,2.294c0,4.526,20.111,1.488,20.111,13.64c0,6.758-5.468,11.345-17.134,11.345
		c-7.292,0-15.312-2.293-15.98-11.035H928.13L928.13,654.15z"/>
</g>
</svg>
